<?xml version="1.0" encoding="UTF-8"?> <!-- Generator: Adobe Illustrator 24.2.1, SVG Export Plug-In . SVG Version: 6.00 Build 0) --> <svg xmlns="http://www.w3.org/2000/svg" xmlns:xlink="http://www.w3.org/1999/xlink" version="1.1" id="Layer_1" x="0px" y="0px" viewBox="0 0 300 80" style="enable-background:new 0 0 300 80;" xml:space="preserve"> <style type="text/css"> .st0{fill:#FFFFFF;} </style> <g> <path class="st0" d="M45.6,30.6l15.9-15.3L41.3,3.6c-2.2-1.3-5-1.3-7.2,0l-3.3,1.9L45.6,30.6z"></path> <path class="st0" d="M62.8,64.4l4.7-2.7c2.2-1.3,3.6-3.7,3.6-6.2l0.1-30.4c0-2.6-1.4-4.9-3.6-6.2l-3.4-1.9L27,52.6L62.8,64.4z"></path> <path class="st0" d="M23.8,51.5l19.6-18.8L28.2,7L7.8,18.7c-2.2,1.3-3.6,3.7-3.6,6.2l0,20.1L23.8,51.5z"></path> <path class="st0" d="M24.6,54.9L13.9,65.1L34,76.8c2.2,1.3,5,1.3,7.2,0l18.1-10.4L24.6,54.9z"></path> <path class="st0" d="M21.3,53.9L4.1,48.2l0,7.1c0,2.6,1.4,4.9,3.6,6.2l3.5,2L21.3,53.9z"></path> </g> <g> <path class="st0" d="M93.9,32.9v13.9c0,4.9-3.4,7.3-7.6,7.3c-3.1,0-5.7-1.3-7.2-3.5v-0.2l1-0.8h0.1c1.3,1.9,3.3,3.1,6.1,3.1 c3.5,0,6-2,6-5.8v-2.3c-1.3,1.8-3.5,3-6.1,3c-4.4,0-7.6-3.2-7.6-7.4s3.2-7.5,7.7-7.5c2.7,0,4.8,1.2,6.1,3v-2.7H93.9z M92.4,40 c0-3.4-2.5-6-6.1-6c-3.6,0-6.1,2.6-6.1,6c0,3.5,2.4,6,6.1,6C89.9,46,92.4,43.4,92.4,40z"></path> <path class="st0" d="M113.9,33.1l-0.5,1.2l-0.1,0.1c-0.5-0.3-1-0.4-1.6-0.4c-2.4,0-4.3,2.4-4.3,5.7v9.2h-1.6v-16h1.5v2.7 c0.9-1.9,2.6-3.1,4.6-3.1c0.7,0,1.4,0.1,2,0.4L113.9,33.1z"></path> <path class="st0" d="M134.7,38.7v10.2h-1.5v-2.5c-1.3,1.8-3.5,2.9-5.9,2.9c-3.7,0-6.2-2.1-6.2-5.1c0-3.1,2.7-5.2,6.6-5.2 c2.1,0,3.9,0.6,5.4,1.4v-1.9c0-2.7-2-4.5-4.9-4.5c-2,0-3.9,0.8-5.4,2.1h-0.2l-0.7-1v-0.1c1.5-1.5,3.9-2.4,6.2-2.4 C132.3,32.5,134.7,34.9,134.7,38.7z M133.2,43.1v-1.3c-1.2-0.7-3.3-1.5-5.4-1.5c-3,0-5,1.5-5,3.8c0,2.1,1.9,3.6,4.6,3.6 C130.3,47.8,133.2,46.1,133.2,43.1z"></path> <path class="st0" d="M162.5,40.9c0,4.7-3.3,8.4-8.1,8.4c-2.9,0-5.1-1.3-6.5-3.4v7.8h-1.6V32.9h1.5v3c1.4-2.1,3.7-3.4,6.6-3.4 C159.1,32.5,162.5,36.2,162.5,40.9z M160.8,40.9c0-3.8-2.6-7-6.6-7c-3.7,0-6.5,2.6-6.5,7c0,4.3,2.9,7,6.5,7 C158.2,47.8,160.8,44.7,160.8,40.9z"></path> <path class="st0" d="M186.7,39v9.9h-1.6v-9.8c0-3.1-2-5.2-5.1-5.2c-3.2,0-5.5,2.2-5.5,5.3v9.7H173V27.2l1.4-0.2l0.2,0.1v8.2 c1.1-1.8,3.1-2.9,5.7-2.9C184.2,32.5,186.7,35.1,186.7,39z"></path> <path class="st0" d="M197.7,28.5c0-0.8,0.7-1.5,1.5-1.5c0.8,0,1.5,0.7,1.5,1.5S200,30,199.2,30C198.3,30,197.7,29.3,197.7,28.5z M198.4,32.9h1.6v16h-1.6V32.9z"></path> <path class="st0" d="M210.6,40.9c0-4.7,3.5-8.4,8.4-8.4c2.8,0,5.2,1.3,6.6,3.1v0.2l-1,0.8h-0.2c-1.3-1.6-3.2-2.6-5.5-2.6 c-4,0-6.8,3-6.8,7c0,3.9,2.7,6.9,6.9,6.9c2.1,0,4.1-0.9,5.4-2.6h0.2l1,0.8v0.2c-1.4,1.8-3.8,3.1-6.6,3.1 C214.1,49.3,210.6,45.6,210.6,40.9z"></path> <path class="st0" d="M234.1,46.5l8.9-10.9h-8.6v-2.7h12.8v2.4l-8.8,10.9h9.3v2.7h-13.6V46.5z"></path> <path class="st0" d="M259.4,41.8c0.3,3.1,2.6,4.7,5.3,4.7c1.8,0,3.8-0.7,5-2.1h0.3l1.8,1.6v0.3c-1.7,2.1-4.7,3-7.1,3 c-4.6,0-8.6-3.2-8.6-8.4c0-4.8,3.5-8.4,8.3-8.4c2.3,0,4.3,0.8,5.7,2.2c1.5,1.4,2.4,3.5,2.4,5.9c0,0.4,0,0.8-0.1,1.1H259.4z M259.4,39.3h9.4c-0.2-1.2-0.6-2.1-1.3-2.8c-0.8-0.9-2-1.3-3.4-1.3C261.6,35.2,259.8,36.8,259.4,39.3z"></path> <path class="st0" d="M297,39.3v9.7h-3.5v-9.4c0-2.4-1.4-4-3.9-4c-2.3,0-4,1.6-4,4v9.4h-3.5v-16h3.1V35c1.1-1.5,2.9-2.5,5.2-2.5 C294.4,32.5,297,35.3,297,39.3z"></path> </g> </svg> 